<svg width="20" height="20" viewBox="0 0 20 20" fill="none" xmlns="http://www.w3.org/2000/svg">
<path d="M10 0C4.47727 0 0 4.47727 0 10C0 15.5227 4.47727 20 10 20C15.5227 20 20 15.5227 20 10C20 4.47727 15.5227 0 10 0ZM10 1.81818C14.5186 1.81818 18.1818 5.48136 18.1818 10C18.1818 14.5186 14.5186 18.1818 10 18.1818C5.48136 18.1818 1.81818 14.5186 1.81818 10C1.81818 5.48136 5.48136 1.81818 10 1.81818ZM14.1096 6.06268C13.8787 6.03604 13.5886 6.09933 13.2644 6.21626C12.6721 6.4299 5.10169 9.64452 4.66442 9.83043C4.25033 10.0068 3.85788 10.199 3.85742 10.4767C3.85742 10.6722 3.97332 10.7826 4.29332 10.8967C4.62605 11.0158 5.46513 11.2694 5.96058 11.4062C6.43786 11.5376 6.98061 11.4231 7.28516 11.234C7.60743 11.0336 11.3312 8.54205 11.598 8.32386C11.8648 8.10568 12.0781 8.38577 11.8599 8.6044C11.6417 8.82304 9.0855 11.3023 8.74822 11.646C8.33913 12.0632 8.62993 12.4955 8.90447 12.6687C9.21766 12.8664 11.4724 14.3782 11.812 14.6209C12.1515 14.8636 12.4953 14.9734 12.8107 14.9734C13.1262 14.9734 13.2922 14.5576 13.449 14.0758C13.6331 13.5117 14.4955 7.8873 14.6014 6.77912C14.6337 6.44321 14.5277 6.21993 14.32 6.12038C14.2571 6.09027 14.1865 6.07156 14.1096 6.06268Z" fill="#666666"/>
</svg>
