<svg width="20" height="21" viewBox="0 0 20 21" fill="none" xmlns="http://www.w3.org/2000/svg">
<path d="M20 10.1443C20 15.4707 15.6047 19.7885 10.1818 19.7885C8.46022 19.7885 6.84289 19.3529 5.43578 18.5885L0 20.2984L1.77222 15.124C0.878222 13.6708 0.363333 11.9664 0.363333 10.1443C0.363333 4.81782 4.75911 0.5 10.1818 0.5C15.6051 0.5 20 4.81782 20 10.1443ZM10.1818 2.03592C5.62978 2.03592 1.92711 5.67333 1.92711 10.1443C1.92711 11.9184 2.51133 13.5615 3.49956 14.8981L2.46822 17.9094L5.64045 16.9114C6.94378 17.7585 8.50511 18.2526 10.182 18.2526C14.7333 18.2526 18.4367 14.6156 18.4367 10.1447C18.4367 5.67377 14.7336 2.03592 10.1818 2.03592ZM15.1398 12.3654C15.0791 12.2671 14.9189 12.2077 14.6784 12.0896C14.4376 11.9714 13.254 11.3993 13.034 11.3207C12.8133 11.242 12.6524 11.2024 12.4922 11.4389C12.332 11.6756 11.8707 12.2077 11.73 12.3654C11.5896 12.5236 11.4493 12.5434 11.2084 12.425C10.968 12.3069 10.1927 12.057 9.27333 11.2519C8.558 10.6254 8.07489 9.8519 7.93444 9.61497C7.79422 9.37849 7.91978 9.25068 8.04 9.13299C8.14845 9.02696 8.28089 8.85692 8.40111 8.71899C8.52178 8.58084 8.56178 8.48251 8.64156 8.32456C8.72222 8.16683 8.682 8.0289 8.62156 7.91033C8.56156 7.7922 8.07978 6.62893 7.87933 6.15553C7.67889 5.68257 7.47867 5.76132 7.338 5.76132C7.19778 5.76132 7.03711 5.74152 6.87667 5.74152C6.71622 5.74152 6.45533 5.8007 6.23467 6.03718C6.01422 6.27388 5.39267 6.84584 5.39267 8.00888C5.39267 9.17215 6.25467 10.296 6.37533 10.4535C6.49556 10.6111 8.03978 13.0757 10.4864 14.0223C12.9333 14.9685 12.9333 14.6528 13.3747 14.6132C13.8156 14.5738 14.7982 14.0415 14.9996 13.4897C15.1996 12.9372 15.1996 12.464 15.1398 12.3654Z" fill="#666666"/>
</svg>
