<svg width="200" height="100" fill="none" xmlns="http://www.w3.org/2000/svg"><rect x="1" y="1" width="198" height="98" rx="9" fill="#fff"/><path d="M46.904 36.406V62h-4.412L31.014 43.666V62h-4.412V36.406h4.412l11.513 18.37v-18.37h4.377zM72.568 48.5v1.406c0 1.934-.252 3.668-.755 5.203-.504 1.535-1.225 2.842-2.163 3.92a9.297 9.297 0 01-3.34 2.479c-1.3.562-2.742.844-4.324.844-1.57 0-3.005-.282-4.306-.844a9.673 9.673 0 01-3.358-2.479c-.949-1.078-1.687-2.385-2.215-3.92-.515-1.535-.773-3.27-.773-5.203V48.5c0-1.934.258-3.662.773-5.185.516-1.536 1.243-2.842 2.18-3.92a9.39 9.39 0 013.358-2.479c1.3-.574 2.736-.861 4.306-.861 1.582 0 3.024.287 4.324.861a9.19 9.19 0 013.358 2.479c.937 1.078 1.658 2.384 2.162 3.92.516 1.523.773 3.251.773 5.185zm-4.412 1.406v-1.441c0-1.43-.14-2.69-.422-3.78-.27-1.101-.673-2.02-1.212-2.76-.528-.75-1.178-1.312-1.952-1.687-.773-.386-1.646-.58-2.619-.58-.973 0-1.84.194-2.601.58-.762.375-1.413.938-1.952 1.688-.527.738-.931 1.658-1.213 2.76-.28 1.09-.421 2.35-.421 3.779v1.441c0 1.43.14 2.696.421 3.797.282 1.102.692 2.033 1.231 2.795.55.75 1.207 1.318 1.969 1.705.762.375 1.629.563 2.601.563.985 0 1.858-.188 2.62-.563.761-.387 1.406-.955 1.933-1.705.527-.762.926-1.693 1.195-2.795.282-1.101.422-2.367.422-3.797zm33.821 8.596V62h-12.85v-3.498h12.85zm-11.62-22.096V62h-4.412V36.406h4.412zM124.635 48.5v1.406c0 1.934-.252 3.668-.756 5.203-.504 1.535-1.225 2.842-2.162 3.92a9.298 9.298 0 01-3.34 2.479c-1.301.562-2.742.844-4.324.844-1.571 0-3.006-.282-4.307-.844a9.67 9.67 0 01-3.357-2.479c-.95-1.078-1.688-2.385-2.215-3.92-.516-1.535-.774-3.27-.774-5.203V48.5c0-1.934.258-3.662.774-5.185.515-1.536 1.242-2.842 2.18-3.92a9.386 9.386 0 013.357-2.479c1.301-.574 2.736-.861 4.307-.861 1.582 0 3.023.287 4.324.861a9.183 9.183 0 013.357 2.479c.938 1.078 1.658 2.384 2.162 3.92.516 1.523.774 3.251.774 5.185zm-4.412 1.406v-1.441c0-1.43-.141-2.69-.422-3.78-.27-1.101-.674-2.02-1.213-2.76-.527-.75-1.178-1.312-1.951-1.687-.774-.386-1.647-.58-2.619-.58-.973 0-1.84.194-2.602.58-.762.375-1.412.938-1.951 1.688-.527.738-.932 1.658-1.213 2.76-.281 1.09-.422 2.35-.422 3.779v1.441c0 1.43.141 2.696.422 3.797.281 1.102.691 2.033 1.23 2.795.551.75 1.207 1.318 1.969 1.705.762.375 1.629.563 2.602.563.984 0 1.857-.188 2.619-.563.762-.387 1.406-.955 1.933-1.705.528-.762.926-1.693 1.196-2.795.281-1.101.422-2.367.422-3.797zm28.476-.984v9.773c-.363.48-.931 1.008-1.705 1.582-.762.563-1.775 1.05-3.041 1.46-1.265.41-2.842.615-4.728.615-1.606 0-3.077-.27-4.413-.809a9.664 9.664 0 01-3.462-2.408c-.961-1.055-1.705-2.338-2.233-3.85-.527-1.523-.791-3.258-.791-5.203v-1.775c0-1.934.24-3.657.721-5.168.492-1.524 1.195-2.813 2.109-3.867a8.817 8.817 0 013.305-2.391c1.301-.55 2.771-.826 4.412-.826 2.098 0 3.832.351 5.203 1.054 1.383.692 2.449 1.653 3.199 2.883s1.225 2.637 1.424 4.219h-4.324c-.141-.89-.416-1.688-.826-2.39a4.19 4.19 0 00-1.723-1.653c-.738-.41-1.699-.615-2.883-.615-1.019 0-1.916.193-2.689.58a5.083 5.083 0 00-1.934 1.705c-.504.75-.884 1.664-1.142 2.742-.258 1.078-.387 2.309-.387 3.692v1.81c0 1.406.147 2.654.439 3.744.305 1.09.739 2.01 1.301 2.76a5.637 5.637 0 002.092 1.705c.82.375 1.746.563 2.777.563 1.008 0 1.834-.082 2.479-.247.644-.175 1.154-.38 1.529-.615.387-.246.686-.48.897-.703v-5.08h-5.326v-3.287h9.72zm25.295-.422v1.406c0 1.934-.252 3.668-.756 5.203-.504 1.535-1.224 2.842-2.162 3.92a9.298 9.298 0 01-3.34 2.479c-1.3.562-2.742.844-4.324.844-1.57 0-3.006-.282-4.307-.844a9.67 9.67 0 01-3.357-2.479c-.949-1.078-1.687-2.385-2.215-3.92-.515-1.535-.773-3.27-.773-5.203V48.5c0-1.934.258-3.662.773-5.185.516-1.536 1.242-2.842 2.18-3.92a9.386 9.386 0 013.357-2.479c1.301-.574 2.737-.861 4.307-.861 1.582 0 3.023.287 4.324.861a9.195 9.195 0 013.358 2.479c.937 1.078 1.658 2.384 2.162 3.92.515 1.523.773 3.251.773 5.185zm-4.412 1.406v-1.441c0-1.43-.141-2.69-.422-3.78-.269-1.101-.674-2.02-1.213-2.76-.527-.75-1.177-1.312-1.951-1.687-.773-.386-1.646-.58-2.619-.58-.973 0-1.84.194-2.602.58-.761.375-1.412.938-1.951 1.688-.527.738-.931 1.658-1.213 2.76-.281 1.09-.422 2.35-.422 3.779v1.441c0 1.43.141 2.696.422 3.797.282 1.102.692 2.033 1.231 2.795.551.75 1.207 1.318 1.969 1.705.761.375 1.628.563 2.601.563.984 0 1.858-.188 2.619-.563.762-.387 1.407-.955 1.934-1.705.527-.762.926-1.693 1.195-2.795.281-1.101.422-2.367.422-3.797z" fill="#000"/><rect x="1" y="1" width="198" height="98" rx="9" stroke="#000" stroke-width="2"/></svg>