<?xml version="1.0" encoding="utf-8"?><svg xmlns="http://www.w3.org/2000/svg" xmlns:xlink="http://www.w3.org/1999/xlink"><symbol viewBox="0 0 14 14" id="minus" xmlns="http://www.w3.org/2000/svg"><path fill-rule="evenodd" clip-rule="evenodd" d="M2.75 7a.75.75 0 0 1 .75-.75h7a.75.75 0 0 1 0 1.5h-7A.75.75 0 0 1 2.75 7z"/></symbol><symbol viewBox="0 0 14 14" id="plus" xmlns="http://www.w3.org/2000/svg"><path fill-rule="evenodd" clip-rule="evenodd" d="M2.75 7a.75.75 0 0 1 .75-.75h7a.75.75 0 0 1 0 1.5h-7A.75.75 0 0 1 2.75 7z"/><path fill-rule="evenodd" clip-rule="evenodd" d="M7 2.75a.75.75 0 0 1 .75.75v7a.75.75 0 0 1-1.5 0v-7A.75.75 0 0 1 7 2.75z"/></symbol><symbol viewBox="0 0 20 20" id="tg" xmlns="http://www.w3.org/2000/svg"><path d="M10 0C4.477 0 0 4.477 0 10s4.477 10 10 10 10-4.477 10-10S15.523 0 10 0zm0 1.818a8.182 8.182 0 1 1 0 16.364 8.182 8.182 0 0 1 0-16.364zm4.11 4.245c-.231-.027-.521.036-.846.153-.592.214-8.162 3.429-8.6 3.614-.414.177-.806.369-.807.647 0 .195.116.306.436.42.333.119 1.172.372 1.668.51.477.13 1.02.016 1.324-.173.322-.2 4.046-2.692 4.313-2.91.267-.218.48.062.262.28-.218.219-2.774 2.698-3.112 3.042-.409.417-.118.85.156 1.023.314.197 2.568 1.71 2.908 1.952.34.243.683.352.999.352.315 0 .481-.415.638-.897.184-.564 1.046-6.189 1.152-7.297.033-.336-.073-.56-.281-.659a.66.66 0 0 0-.21-.057z"/></symbol><symbol viewBox="0 0 20 21" id="whatsapp" xmlns="http://www.w3.org/2000/svg"><path d="M20 10.144c0 5.327-4.395 9.644-9.818 9.644a9.914 9.914 0 0 1-4.746-1.2L0 20.299l1.772-5.174a9.47 9.47 0 0 1-1.409-4.98C.363 4.818 4.76.5 10.182.5 15.605.5 20 4.818 20 10.144zm-9.818-8.108c-4.552 0-8.255 3.637-8.255 8.108A7.97 7.97 0 0 0 3.5 14.898L2.468 17.91l3.172-.998a8.31 8.31 0 0 0 4.542 1.342c4.551 0 8.255-3.637 8.255-8.108s-3.703-8.11-8.255-8.11zm4.958 10.33c-.06-.099-.221-.158-.462-.276-.24-.119-1.424-.69-1.644-.77-.22-.078-.382-.118-.542.119-.16.237-.621.769-.762.926-.14.159-.28.178-.522.06-.24-.118-1.015-.368-1.935-1.173-.715-.627-1.198-1.4-1.339-1.637-.14-.237-.014-.364.106-.482.108-.106.24-.276.361-.414.12-.138.16-.236.24-.394.081-.158.041-.296-.02-.415-.06-.118-.541-1.281-.742-1.754-.2-.473-.4-.395-.541-.395-.14 0-.3-.02-.461-.02-.16 0-.422.06-.642.296-.22.237-.842.809-.842 1.972 0 1.163.862 2.287.982 2.444.12.158 1.665 2.623 4.111 3.57 2.447.946 2.447.63 2.889.59.44-.04 1.423-.572 1.625-1.123.2-.553.2-1.026.14-1.125z"/></symbol></svg>